<svg xmlns="http://www.w3.org/2000/svg" xmlns:xlink="http://www.w3.org/1999/xlink" width="500" zoomAndPan="magnify" viewBox="0 0 375 374.999991" height="500" preserveAspectRatio="xMidYMid meet" version="1.0"><path fill="#2564e8" d="M 187.5 228.039062 C 184.199219 228.039062 180.976562 227.664062 177.976562 226.914062 L 177.976562 258.335938 C 181.125 258.789062 184.273438 259.011719 187.5 259.011719 C 226.800781 259.011719 258.976562 226.835938 258.976562 187.539062 C 258.976562 148.238281 226.800781 116.0625 187.5 116.0625 C 148.199219 116.0625 116.023438 148.238281 116.023438 187.539062 L 116.023438 360.863281 C 119.550781 362.289062 123.074219 363.636719 126.675781 364.914062 C 126.898438 364.988281 127.125 365.0625 127.351562 365.136719 C 128.023438 365.363281 128.625 365.585938 129.300781 365.8125 C 135.074219 367.6875 141 369.335938 147 370.6875 L 147 187.539062 C 147 164.960938 164.925781 147.039062 187.5 147.039062 C 210.074219 147.039062 228 164.960938 228 187.539062 C 228 210.113281 210.074219 228.039062 187.5 228.039062 Z M 187.5 228.039062 " fill-opacity="1" fill-rule="nonzero"/><path fill="#f59a0c" d="M 187.5 0.0390625 C 84.148438 0.0390625 0 84.1875 0 187.539062 C 0 189.335938 0 191.0625 0.0742188 192.863281 C 0.0742188 193.460938 0.0742188 194.0625 0.148438 194.664062 C 0.148438 195.261719 0.226562 195.863281 0.226562 196.460938 C 0.226562 197.0625 0.300781 197.664062 0.300781 198.1875 C 0.375 199.386719 0.449219 200.511719 0.523438 201.710938 C 0.601562 202.3125 0.601562 202.914062 0.675781 203.4375 C 0.75 204.039062 0.75 204.636719 0.824219 205.164062 C 0.898438 205.761719 0.898438 206.289062 0.976562 206.886719 C 1.050781 207.488281 1.125 208.011719 1.125 208.613281 C 1.199219 209.210938 1.273438 209.738281 1.351562 210.335938 C 1.425781 210.9375 1.5 211.460938 1.574219 212.0625 C 1.648438 212.664062 1.726562 213.1875 1.800781 213.789062 C 1.875 214.386719 1.949219 214.914062 2.023438 215.511719 C 2.101562 216.113281 2.175781 216.636719 2.324219 217.238281 C 2.625 218.960938 2.925781 220.613281 3.226562 222.335938 C 3.300781 222.9375 3.449219 223.460938 3.523438 224.0625 C 3.75 225.1875 3.976562 226.3125 4.199219 227.4375 C 9.148438 250.3125 18.375 271.6875 30.898438 290.664062 L 30.898438 187.539062 C 30.898438 100.914062 100.800781 31.011719 187.425781 31.011719 C 274.050781 31.011719 344.023438 100.914062 344.023438 187.539062 C 344.023438 266.886719 285.375 332.210938 208.875 342.636719 L 208.875 315.261719 C 270.074219 304.988281 316.949219 251.585938 316.949219 187.539062 C 316.949219 116.210938 258.824219 58.011719 187.425781 58.011719 C 116.023438 58.011719 57.976562 116.210938 57.976562 187.539062 L 57.976562 322.988281 C 62.398438 327.261719 67.125 331.3125 72 335.136719 C 72.300781 335.363281 72.601562 335.585938 72.824219 335.8125 C 76.726562 338.8125 80.699219 341.664062 84.824219 344.363281 C 86.175781 345.261719 87.601562 346.164062 88.949219 346.988281 L 88.949219 187.539062 C 88.949219 132.9375 132.898438 88.988281 187.5 88.988281 C 242.101562 88.988281 286.050781 132.9375 286.050781 187.539062 C 286.050781 242.136719 242.101562 286.085938 187.5 286.085938 C 184.273438 286.085938 181.050781 285.9375 177.976562 285.636719 L 177.976562 374.738281 C 181.125 374.886719 184.351562 374.960938 187.5 374.960938 C 290.851562 374.960938 375 290.8125 375 187.460938 C 375 84.113281 290.851562 0.0390625 187.5 0.0390625 Z M 187.5 0.0390625 " fill-opacity="1" fill-rule="nonzero"/></svg>